<?xml version="1.0" encoding="utf-8"?>
<!-- Generator: Adobe Illustrator 25.3.1, SVG Export Plug-In . SVG Version: 6.00 Build 0)  -->
<svg version="1.1" id="Layer_1" xmlns="http://www.w3.org/2000/svg" xmlns:xlink="http://www.w3.org/1999/xlink" x="0px" y="0px"
	 viewBox="0 0 512 512" style="enable-background:new 0 0 512 512;" xml:space="preserve">
<style type="text/css">
	.st0{fill:#C64137;}
	.st1{fill:#FFFFFF;}
</style>
<path class="st0" d="M508.11,131.28c-4.68-39.53-26.28-64.18-64.77-74.3c-10.51-2.76-21.33-4.61-32.12-6.06
	c-55.47-7.46-111.25-9.21-180.77-8.56c-15.4,0.59-44.51,0.64-73.41,3.12c-29.84,2.57-59.83,5.81-89.11,11.85
	C33.77,64.38,12.05,86.37,5.8,121.45c-2.43,13.62-3.63,27.54-4.35,41.38c-3.87,74.41-0.59,148.31,16.81,221.12
	c10.75,45.01,35.83,69.24,81.88,75.9c41.62,6.01,83.98,7.79,126.09,9.21c59.08,1.99,118.16-0.08,176.91-7.26
	c48.93-5.98,81.32-29.93,92.1-78.99c9.06-41.25,15.19-82.7,16.08-125.11C512.2,215.45,513.08,173.29,508.11,131.28z"/>
<path class="st1" d="M385.59,432.19c-16.6,1.03-32.38,2.15-48.18,2.75c-1.36,0.05-3.5-3.11-4.17-5.15
	c-7.6-23.26-14.64-46.7-22.55-69.85c-4.19-12.25-14.15-18-26.66-19.91c-18.3-2.79-36.59-2.31-54.86,0.07
	c-12.26,1.59-22.04,7.38-26.35,19.34c-8.88,24.66-17.12,49.56-26.15,75.91c-14.74-0.9-31.58-1.92-49.46-3.01
	c-7.89-114.74-15.71-228.45-23.63-343.57c12.63,0,23.84,0,35.92,0c3.48,15.63,6.84,31.99,10.79,48.22
	c9.96,40.96,19.98,81.91,30.48,122.74c2.06,8.02,5.65,15.86,9.75,23.1c8.08,14.28,20.79,23.84,36.97,25.15
	c18.82,1.52,38.03,1.65,56.79-0.33c19.59-2.07,34.09-14.08,40.98-32.62c7.21-19.39,13.48-39.26,18.44-59.34
	c10-40.51,18.84-81.3,28.17-121.97c0.39-1.71,0.87-3.4,1.59-6.16c11.55,0.53,23.12,1.06,35.84,1.64
	C401.39,203.64,393.53,317.31,385.59,432.19z"/>
</svg>
